<svg xmlns="http://www.w3.org/2000/svg" viewBox="0 0 36 36">
  <defs>
    <radialGradient id="g1" cx="-619.29" cy="488.84" r="1"
      gradientTransform="translate(29495.74 9885.89) scale(47.57 -20.15)"
      gradientUnits="userSpaceOnUse">
      <stop offset=".18" stop-color="#1657f4"/>
      <stop offset=".57" stop-color="#0036c4"/>
    </radialGradient>

    <linearGradient id="g2" x1="5" y1="97" x2="27.97" y2="97"
      gradientTransform="translate(0 116) scale(1 -1)"
      gradientUnits="userSpaceOnUse">
      <stop offset="0" stop-color="#66c0ff"/>
      <stop offset=".26" stop-color="#0094f0"/>
    </linearGradient>

    <radialGradient id="g3" cx="-637.72" cy="517.98" r="1"
      gradientTransform="translate(-40017.96 -12225.34) rotate(133.55) scale(29.36 -72.32)"
      gradientUnits="userSpaceOnUse">
      <stop offset=".14" stop-color="#d471ff"/>
      <stop offset=".83" stop-color="#509df5" stop-opacity="0"/>
    </radialGradient>

    <radialGradient id="g4" cx="-611.76" cy="514.18" r="1"
      gradientTransform="translate(-52234.57 11411.47) rotate(90) scale(18.62 -101.65)"
      gradientUnits="userSpaceOnUse">
      <stop offset=".28" stop-color="#4f006f" stop-opacity="0"/>
      <stop offset="1" stop-color="#4f006f"/>
    </radialGradient>

    <linearGradient id="g5" x1="5" y1="107.22" x2="35" y2="106.72"
      gradientTransform="translate(0 116) scale(1 -1)"
      gradientUnits="userSpaceOnUse">
      <stop offset="0" stop-color="#9deaff"/>
      <stop offset=".2" stop-color="#3bd5ff"/>
    </linearGradient>

    <radialGradient id="g6" cx="-650.27" cy="515.34" r="1"
      gradientTransform="translate(-26921.47 -31089.42) rotate(166.85) scale(29.49 -70.64)"
      gradientUnits="userSpaceOnUse">
      <stop offset=".06" stop-color="#e4a7fe"/>
      <stop offset=".54" stop-color="#e4a7fe" stop-opacity="0"/>
    </radialGradient>
  </defs>

  <!-- Entire artwork shifted left by 2.5 units -->
  <g transform="translate(-2.5, 0)">

    <!-- Back page -->
    <path d="M5,27.09l14-17.09,16,11.11v11.39c0,1.93-1.57,3.5-3.5,3.5H11c-3.31,0-6-2.69-6-6v-2.91Z"
          fill="url(#g1)"/>

    <!-- Middle page -->
    <path d="M5,15.04c0-2.49,2.01-4.5,4.5-4.5h20.39l5.11-2.54v12.5c0,1.93-1.57,3.5-3.5,3.5H11c-3.31,0-6,2.69-6,6v-14.96Z"
          fill="url(#g2)"/>
    <path d="M5,15.04c0-2.49,2.01-4.5,4.5-4.5h20.39l5.11-2.54v12.5c0,1.93-1.57,3.5-3.5,3.5H11c-3.31,0-6,2.69-6,6v-14.96Z"
          fill="url(#g3)" fill-opacity=".6"/>
    <path d="M5,15.04c0-2.49,2.01-4.5,4.5-4.5h20.39l5.11-2.54v12.5c0,1.93-1.57,3.5-3.5,3.5H11c-3.31,0-6,2.69-6,6v-14.96Z"
          fill="url(#g4)" fill-opacity=".1"/>

    <!-- Top bar -->
    <path d="M5,6C5,2.69,7.69,0,11,0h20.5c1.93,0,3.5,1.57,3.5,3.5v5c0,1.93-1.57,3.5-3.5,3.5H11c-3.31,0-6,2.69-6,6V6Z"
          fill="url(#g5)"/>
    <path d="M5,6C5,2.69,7.69,0,11,0h20.5c1.93,0,3.5,1.57,3.5,3.5v5c0,1.93-1.57,3.5-3.5,3.5H11c-3.31,0-6,2.69-6,6V6Z"
          fill="url(#g6)" fill-opacity=".8"/>

  </g>
</svg>

