<svg xmlns="http://www.w3.org/2000/svg"
     width="256" height="256"
     viewBox="12.96 10.8 82.08 82.08">

  <defs>
    <linearGradient id="g0" x1="28.61" y1="51.03" x2="66.57" y2="27.49" gradientUnits="userSpaceOnUse">
      <stop offset="0" stop-color="#20a7fa"/>
      <stop offset="0.4" stop-color="#3bd5ff"/>
      <stop offset="1" stop-color="#c4b0ff"/>
    </linearGradient>

    <linearGradient id="g1" x1="41.67" y1="59.06" x2="78.94" y2="35.31" gradientUnits="userSpaceOnUse">
      <stop offset="0" stop-color="#165ad9"/>
      <stop offset="0.5" stop-color="#1880e5"/>
      <stop offset="1" stop-color="#8587ff"/>
    </linearGradient>

    <linearGradient id="g2" x1="57.08" y1="59.52" x2="33.62" y2="40.41" gradientUnits="userSpaceOnUse">
      <stop offset="0.24" stop-color="#448aff" stop-opacity="0"/>
      <stop offset="0.79" stop-color="#0032b1"/>
    </linearGradient>

    <linearGradient id="g3" x1="54.1" y1="66.88" x2="91.17" y2="43.16" gradientUnits="userSpaceOnUse">
      <stop offset="0" stop-color="#1a43a6"/>
      <stop offset="0.49" stop-color="#2052cb"/>
      <stop offset="1" stop-color="#5f20cb"/>
    </linearGradient>

    <linearGradient id="g4" x1="64.56" y1="65.47" x2="40.89" y2="47.3" gradientUnits="userSpaceOnUse">
      <stop offset="0" stop-color="#0045b9" stop-opacity="0"/>
      <stop offset="0.67" stop-color="#0d1f69"/>
    </linearGradient>

    <radialGradient id="g5" cx="54.01" cy="22.86" r="52.5" gradientUnits="userSpaceOnUse">
      <stop offset="0.57" stop-color="#275ff0" stop-opacity="0"/>
      <stop offset="0.99" stop-color="#002177"/>
    </radialGradient>

    <linearGradient id="g6" x1="86.62" y1="64.77" x2="53.73" y2="64.77" gradientUnits="userSpaceOnUse">
      <stop offset="0" stop-color="#4dc4ff"/>
      <stop offset="0.2" stop-color="#0fafff"/>
    </linearGradient>

    <radialGradient id="g7" cx="61.42" cy="79.21" r="20.97" gradientUnits="userSpaceOnUse">
      <stop offset="0.26" stop-color="#0060d1"/>
      <stop offset="0.91" stop-color="#0383f1" stop-opacity="0"/>
    </radialGradient>

    <radialGradient id="g8" cx="29.77" cy="94.73" r="71.19" gradientUnits="userSpaceOnUse">
      <stop offset="0.69" stop-color="#f4a7f7" stop-opacity="0"/>
      <stop offset="0.92" stop-color="#f4a7f7"/>
    </radialGradient>

    <radialGradient id="g9" cx="61.66" cy="70.57" r="79.05" gradientUnits="userSpaceOnUse">
      <stop offset="0" stop-color="#49deff"/>
      <stop offset="0.43" stop-color="#29c3ff"/>
    </radialGradient>

    <linearGradient id="g10" x1="16.77" y1="79.14" x2="48.43" y2="79.14" gradientUnits="userSpaceOnUse">
      <stop offset="0.21" stop-color="#6ce0ff"/>
      <stop offset="0.54" stop-color="#50d5ff" stop-opacity="0"/>
    </linearGradient>
  </defs>

  <g>
    <path d="M66.57,27.43L24.96,53.81L21.38,48.16V43.3C21.38,41.53 22.28,39.88 23.76,38.91L47.95,23.22C51.63,20.83 56.38,20.83 60.07,23.22L66.57,27.43Z"
          fill="url(#g0)"/>

    <path d="M59.69,22.99C59.82,23.06 59.94,23.14 60.07,23.22L78.94,35.46L32.14,65.13L24.96,53.8L59.31,31.98C62.56,29.92 62.7,25.27 59.69,22.99Z"
          fill="url(#g1)"/>

    <path d="M59.69,22.99C59.82,23.06 59.94,23.14 60.07,23.22L78.94,35.46L32.14,65.13L24.96,53.8L59.31,31.98C62.56,29.92 62.7,25.27 59.69,22.99Z"
          fill="url(#g2)" fill-opacity="0.2"/>

    <path d="M50.81,70.79L32.14,65.13L71.84,39.96C75.18,37.84 75.17,32.96 71.82,30.85L71.64,30.74L72.16,31.06L84.24,38.9C85.73,39.86 86.62,41.51 86.62,43.29V47.99L50.81,70.79Z"
          fill="url(#g3)"/>

    <path d="M50.81,70.79L32.14,65.13L71.84,39.96C75.18,37.84 75.17,32.96 71.82,30.85L71.64,30.74L72.16,31.06L84.24,38.9C85.73,39.86 86.62,41.51 86.62,43.29V47.99L50.81,70.79Z"
          fill="url(#g4)" fill-opacity="0.2"/>

    <path d="M60.07,23.22C56.38,20.83 51.63,20.83 47.95,23.22L23.76,38.91C22.28,39.88 21.38,41.53 21.38,43.3V43.53C21.44,45.31 22.38,46.95 23.89,47.9L53.96,66.86L84.11,47.93C85.67,46.95 86.62,45.23 86.62,43.38V47.99L86.62,43.29C86.62,41.51 85.73,39.86 84.24,38.9L60.07,23.22Z"
          fill="url(#g5)"/>

    <path d="M48.66,86.63H75.68C81.72,86.63 86.62,81.73 86.62,75.69L86.62,43.38C86.62,45.23 85.67,46.95 84.1,47.93L44.48,72.81C42.35,74.15 41.05,76.5 41.05,79.02C41.05,83.22 44.45,86.63 48.66,86.63Z"
          fill="url(#g6)"/>

    <path d="M48.66,86.63H75.68C81.72,86.63 86.62,81.73 86.62,75.69L86.62,43.38C86.62,45.23 85.67,46.95 84.1,47.93L44.48,72.81C42.35,74.15 41.05,76.5 41.05,79.02C41.05,83.22 44.45,86.63 48.66,86.63Z"
          fill="url(#g7)" fill-opacity="0.4"/>

    <path d="M48.66,86.63H75.68C81.72,86.63 86.62,81.73 86.62,75.69L86.62,43.38C86.62,45.23 85.67,46.95 84.1,47.93L44.48,72.81C42.35,74.15 41.05,76.5 41.05,79.02C41.05,83.22 44.45,86.63 48.66,86.63Z"
          fill="url(#g8)" fill-opacity="0.5"/>

    <path d="M59.49,86.63H32.31C26.27,86.63 21.38,81.73 21.38,75.69V43.36C21.38,45.2 22.32,46.92 23.88,47.9L63.46,72.86C65.63,74.22 66.95,76.61 66.94,79.17C66.94,83.29 63.61,86.63 59.49,86.63Z"
          fill="url(#g9)"/>

    <path d="M59.49,86.63H32.31C26.27,86.63 21.38,81.73 21.38,75.69V43.36C21.38,45.2 22.32,46.92 23.88,47.9L63.46,72.86C65.63,74.22 66.95,76.61 66.94,79.17C66.94,83.29 63.61,86.63 59.49,86.63Z"
          fill="url(#g10)"/>
  </g>
</svg>
