<?xml version="1.0" encoding="UTF-8"?>
<svg id="Layer_2" xmlns="http://www.w3.org/2000/svg" width="128" height="128" version="1.1" viewBox="0 0 128 128">
  <!-- Generator: Adobe Illustrator 29.5.1, SVG Export Plug-In . SVG Version: 2.1.0 Build 141)  -->
  <defs>
    <style>
      .st0 {
        fill: #fff;
      }
    </style>
  </defs>
  <path class="st0" d="M61.8,101.5c-6.1-3.1-12.7-5.3-19.5-6.6-3.6-.6-6-4.1-5.4-7.7l8.3-55.2c-2.8-.2-5.6-.2-8.4,0-.5,0-.9.4-.9.9l-10.2,67.5c0,.6.3,1.1.9,1.2h.2c6.3,0,35-.2,50.2,11.3-3.8-4.4-8.8-8.2-15.1-11.4h0Z"/>
  <path class="st0" d="M92.1,117.8s4.4-29.2,9.7-64.9c4.7-31.9-24.8-41.1-31-42.7-.6-.1-1.1.2-1.3.8h0c0,.1-6.6,44.6-6.6,44.6,0,.6-.2,1.3-.2,2,0,7.7,6.7,9.1,10.1,9.4.6,0,1,.6.9,1.1,0,.2,0,.3,0,.4-2.2,3.5-6.5,12.3-1.3,18.7,0,0,17.5,15.8,19.8,30.6h0Z"/>
  <path class="st0" d="M68.4,91.4l-.6-.6c-4.2-5.2-4.9-12.2-2-19.7-5.6-2.3-8.9-7.2-8.9-13.6s0-1.9.3-2.8l5.2-34.4c-2.8-.5-5.8-.8-8.7-.8s-.9.4-1,.9l-10.2,67.7c0,.6.3,1.1.8,1.2,5.4,1,31,6.7,42.2,25.9-3.2-9.7-13.1-20.2-17.1-23.8h0Z"/>
</svg>

