<?xml version="1.0" encoding="UTF-8"?>
<svg id="Layer_1" xmlns="http://www.w3.org/2000/svg" width="128" height="128" version="1.1" viewBox="0 0 128 128">
  <!-- Generator: Adobe Illustrator 29.5.1, SVG Export Plug-In . SVG Version: 2.1.0 Build 141)  -->
  <defs>
    <style>
      .st0 {
        fill: #fff;
      }
    </style>
  </defs>
  <path class="st0" d="M97.7,33.4c-6.4-2.9-13.1-5-20-6.2h0c-.9,1.6-1.8,3.4-2.6,5.2-7.3-1.1-14.8-1.1-22.2,0-.8-1.8-1.6-3.5-2.6-5.2-6.9,1.2-13.6,3.2-20,6.2-12.6,18.7-16.1,37-14.4,55,7.4,5.5,15.7,9.7,24.5,12.3,2-2.7,3.8-5.5,5.3-8.5-2.9-1.1-5.6-2.4-8.3-3.9.7-.5,1.4-1,2-1.5,15.5,7.3,33.5,7.3,49.1,0,.7.5,1.3,1.1,2,1.5-2.6,1.6-5.4,2.9-8.3,4,1.5,3,3.3,5.8,5.3,8.5,8.8-2.7,17.1-6.8,24.5-12.3,2-20.9-3.4-39-14.4-55h0ZM47.9,77.3c-4.8,0-8.7-4.3-8.7-9.7s3.8-9.7,8.7-9.7,8.8,4.4,8.7,9.7c0,5.3-3.8,9.7-8.7,9.7ZM80.1,77.3c-4.8,0-8.7-4.3-8.7-9.7s3.8-9.7,8.7-9.7,8.8,4.4,8.7,9.7c0,5.3-3.8,9.7-8.7,9.7Z"/>
</svg>