<?xml version="1.0" encoding="UTF-8"?>
<svg id="Layer_3" xmlns="http://www.w3.org/2000/svg" width="128" height="128" version="1.1" viewBox="0 0 128 128">
  <!-- Generator: Adobe Illustrator 29.5.1, SVG Export Plug-In . SVG Version: 2.1.0 Build 141)  -->
  <defs>
    <style>
      .st0 {
        fill: #fff;
      }
    </style>
  </defs>
  <g>
    <path class="st0" d="M91.7,35.8h-.2.2Z"/>
    <path class="st0" d="M91.7,35.8h0Z"/>
    <path class="st0" d="M92.7,43.3h0-.2,0Z"/>
    <path class="st0" d="M91.9,36h0v-.2s0,0,.2.2h0Z"/>
    <path class="st0" d="M63.1,109.1s-.2,0-.2.2h0s0,0,.2-.2Z"/>
    <path class="st0" d="M79.8,105.7c0,0,0,0,0,.3h0v-.2h0Z"/>
    <path class="st0" d="M78.1,109.1s-.2,0-.2.2h0l.2-.2Z"/>
    <path class="st0" d="M51.3,109.9h-.2c0,0,0,0,.2,0h0Z"/>
    <path class="st0" d="M48.6,107.3v-.3.3h0Z"/>
  </g>
  <path class="st0" d="M66.5,60c-3.6,1.6-7.8,3.5-13.1,3.5s-4.5-.3-6.6-1l3.7,39.6c0,1.7.9,3.2,2,4.3,1.2,1.1,2.7,1.7,4.3,1.7,0,0,5.3.3,7,.3s7.5-.3,7.5-.3c1.6,0,3.1-.6,4.3-1.7,1.2-1.1,1.9-2.7,2-4.3l4-43.7c-1.8-.6-3.6-1-5.6-1-3.5,0-6.3,1.2-9.6,2.7h0Z"/>
  <path class="st0" d="M35.2,43.1h0,0Z"/>
  <path class="st0" d="M98.7,39.4l-.6-2.9c-.5-2.6-1.6-5.1-4.2-6.1-.8-.3-1.8-.4-2.4-1.1s-.8-1.6-1-2.5c-.3-1.7-.5-3.3-.8-5-.2-1.4-.4-3-1.1-4.3-.8-1.8-2.5-2.8-4.2-3.5-.9-.3-1.7-.6-2.6-.9-4.2-1.2-8.7-1.6-13-1.8-5.2-.3-10.4-.2-15.6.3-3.9.4-7.9.8-11.6,2.2-1.3.5-2.7,1.1-3.8,2.2-1.3,1.3-1.7,3.4-.7,5,.7,1.2,1.8,2,2.9,2.6,1.5.7,3.1,1.2,4.7,1.6,4.5,1,9.3,1.5,13.9,1.6,5.1.2,10.3,0,15.4-.5,1.3-.1,2.5-.3,3.8-.5,1.5-.2,2.4-2.3,2-3.7-.5-1.7-1.9-2.3-3.5-2.1-.2,0-.5,0-.7.1h-.2c-.5,0-1.1.2-1.6.2-1.1.1-2.2.2-3.4.3-2.5.2-5,.3-7.5.3s-4.9,0-7.4-.2c-1.1,0-2.2-.2-3.4-.3-.5,0-1-.1-1.5-.2h-1.1c-1-.2-2-.4-3.1-.6,0,0-.2,0-.3-.2,0,0,0-.2,0-.3s0-.2,0-.3c0,0,.2-.1.3-.2h0c.9-.2,1.8-.4,2.6-.5.3,0,.6,0,.9-.1h0c.6,0,1.1-.1,1.7-.2,4.8-.5,9.6-.7,14.5-.5,2.3,0,4.7.2,7,.5.5,0,1,.1,1.5.2h1c1.1.2,2.3.4,3.4.7,1.7.4,3.8.5,4.5,2.4.2.6.3,1.3.5,1.9l.2.8h0c.4,1.9.8,3.8,1.2,5.7v.4c0,.1,0,.3-.2.4,0,.1-.2.2-.3.3s-.2.1-.4.1h-.4c-.7.1-1.5.2-2.2.3-1.5.2-3,.3-4.4.5-2.9.3-5.9.4-8.8.5h-4.5c-6,0-12-.4-17.9-1.1-.6,0-1.3-.2-1.9-.3.5,0-.4,0-.5,0-.4,0-.8-.1-1.2-.2-1.4-.2-2.7-.5-4.1-.7-1.7-.3-3.2-.1-4.7.7-1.2.7-2.2,1.8-2.9,3.1-.6,1.4-.8,2.9-1.1,4.4-.3,1.5-.7,3.1-.6,4.6.4,3.3,2.6,6,5.8,6.6,3,.6,6,1,9.1,1.4,11.9,1.5,24,1.7,36,.5,1,0,1.9-.2,2.9-.3.3,0,.6,0,.9,0s.6.3.8.5c.2.2.4.5.5.8s0,.6,0,.9l-.3,3.1c-.6,6.2-1.2,12.4-1.8,18.6-.6,6.5-1.3,13-1.9,19.5-.2,1.8-.4,3.7-.5,5.5-.2,1.8-.2,3.7-.5,5.4-.5,2.8-2.3,4.5-5,5.1-2.4.6-4.9.9-7.4.9s-5.5,0-8.3,0c-3,0-6.6-.3-8.9-2.6-2-2-2.3-5.2-2.6-7.9-.4-3.6-.7-7.2-1.1-10.8l-2-20-1.3-13v-.6c-.2-1.5-1.2-3.1-2.9-3-1.4,0-3,1.3-2.9,3l1,9.6,2,19.9c.6,5.6,1.1,11.3,1.7,16.9,0,1.1.2,2.2.3,3.2.6,5.9,5,9.1,10.3,10,3.1.5,6.4.6,9.5.7,4.1,0,8.2.2,12.2-.5,6-1.1,10.4-5.3,11.1-11.7.2-1.9.4-3.7.5-5.6.6-6.1,1.2-12.2,1.8-18.4l2-20,.9-9.2c0-.5.2-.9.5-1.2s.7-.6,1.1-.7c1.7-.3,3.3-.9,4.5-2.3,1.9-2.1,2.3-4.9,1.6-7.8l-.3.3ZM34.7,41.4v.3-.3ZM34.9,42.8h0c0,0,0,0,0,0ZM35,43l.4.3h0l-.4-.3ZM92.5,42.8c-.6.6-1.5.9-2.4,1-10.2,1.6-20.6,2.4-30.9,2-7.4-.3-14.7-1.1-22-2.2-.7,0-1.5-.2-2-.8-.9-1-.5-3.1-.2-4.4.2-1.1.6-2.7,2-2.8,2-.2,4.4.6,6.5,1,2.4.4,4.9.7,7.3.9,10.5,1,21.1.8,31.6-.6,1.9-.3,3.8-.6,5.7-.9,1.7-.3,3.5-.9,4.6.9.7,1.2.8,2.9.7,4.3,0,.6-.3,1.2-.7,1.6h-.2Z"/>
</svg>